<?xml version="1.0" encoding="utf-8"?>
<!-- Uploaded to: SVG Repo, www.svgrepo.com, Generator: SVG Repo Mixer Tools -->
<!DOCTYPE svg PUBLIC "-//W3C//DTD SVG 1.1//EN" "http://www.w3.org/Graphics/SVG/1.1/DTD/svg11.dtd">
<svg xmlns="http://www.w3.org/2000/svg" xmlns:xlink="http://www.w3.org/1999/xlink" version="1.1" id="Layer_1"  width="512" height="512" viewBox="0 0 512 512" enable-background="new 0 0 512 512" xml:space="preserve">
<g id="olive_oil">
	<g>
		<path fill="#9ED36A" d="M298.651,128.002V0.005h-85.318v127.998c0,0-74.67,21.328-74.67,85.327s0,298.666,0,298.666h234.674    c0,0,0-234.667,0-298.666S298.651,128.002,298.651,128.002z"/>
	</g>
	<g>
		<rect x="213.333" y="0.005" fill="#EC5564" width="85.318" height="42.663"/>
	</g>
	<path fill="#8AC054" d="M138.663,287.999c0,92.937,0,223.996,0,223.996h234.674c0,0,0-131.06,0-223.996H138.663z"/>
	<path fill="#D94452" d="M255.988,10.669c5.891,0,10.672-4.773,10.672-10.664h-21.328C245.332,5.896,250.098,10.669,255.988,10.669z   "/>
	<g>
		<path fill="#EC5564" d="M256.004,192.001c-41.343,0-74.857,28.648-74.857,63.991v192.004h149.692V255.992    C330.839,220.649,297.339,192.001,256.004,192.001z"/>
	</g>
	<g>
		<path fill="#424953" d="M298.651,330.654c0,29.469-19.094,53.344-42.663,53.344c-23.562,0-42.655-23.875-42.655-53.344    c0-29.437,19.094-53.326,42.655-53.326C279.558,277.328,298.651,301.218,298.651,330.654z"/>
	</g>
	<g opacity="0.2">
		<path fill="#FFFFFF" d="M255.988,277.328c-1.797,0-3.578,0.156-5.328,0.422c21.046,3.281,37.335,25.718,37.335,52.904    c0,27.203-16.289,49.625-37.335,52.906c1.75,0.281,3.531,0.438,5.328,0.438c23.569,0,42.663-23.875,42.663-53.344    C298.651,301.218,279.558,277.328,255.988,277.328z"/>
	</g>
	<g opacity="0.2">
		<path fill="#FFFFFF" d="M298.651,128.002V0.005h-21.312v127.998c0,0,74.655,21.328,74.655,85.327s0,298.666,0,298.666h21.343    c0,0,0-234.667,0-298.666S298.651,128.002,298.651,128.002z"/>
	</g>
</g>
</svg>