<?xml version="1.0" encoding="iso-8859-1"?>
<!-- Uploaded to: SVG Repo, www.svgrepo.com, Generator: SVG Repo Mixer Tools -->
<svg height="800px" width="800px" version="1.1" id="Layer_1" xmlns="http://www.w3.org/2000/svg" xmlns:xlink="http://www.w3.org/1999/xlink" 
	 viewBox="0 0 512 512" xml:space="preserve">
<path style="fill:#E95353;" d="M438.263,279.684c-74.506,0-134.904-26.376-134.904-58.911c0-32.536,60.398-58.914,134.904-58.914
	c23.818,0,46.182,2.705,65.606,7.436c-40.098-44.961-131.094-76.355-236.95-76.355C123.983,92.94,8.11,150.172,8.11,220.773
	c0,70.6,115.873,127.832,258.809,127.832c105.857,0,196.857-31.394,236.95-76.358C484.446,276.978,462.084,279.684,438.263,279.684z
	"/>
<ellipse style="fill:#C13636;" cx="206.912" cy="215.663" rx="46.919" ry="24.474"/>
<path style="fill:#494F63;" d="M79.222,379.247c47.156,24.528,113.812,39.819,187.697,39.819
	c105.857,0,196.857-31.395,236.95-76.358v-70.46c-40.093,44.964-131.094,76.358-236.95,76.358
	c-142.936,0-258.809-57.233-258.809-127.832v70.459c0,27.917,18.119,53.743,48.863,74.768"/>
<path style="fill:#C13636;" d="M488.561,166.102c-15.544-2.732-32.513-4.244-50.299-4.244c-74.506,0-134.904,26.379-134.904,58.914
	c0,11.263,7.248,21.784,19.802,30.732c23.716-16.902,66.391-28.18,115.102-28.18c23.818,0,46.182,2.705,65.606,7.437v-61.466
	L488.561,166.102z"/>
<g style="opacity:0.15;">
	<path style="fill:#202020;" d="M330.161,220.773c0-30.558,53.279-55.683,121.484-58.625c-4.401-0.19-8.864-0.29-13.381-0.29
		c-74.506,0-134.904,26.379-134.904,58.914c0,11.263,7.248,21.784,19.802,30.732c4.692-3.343,10.135-6.463,16.211-9.322
		C333.435,235.546,330.161,228.328,330.161,220.773z"/>
</g>
<g style="opacity:0.15;">
	<path style="fill:#202020;" d="M104.754,379.247l-22.249-13.246c-30.744-21.024-48.863-46.851-48.863-74.768V276.16
		C17.301,259.4,8.11,240.62,8.11,220.773v70.459c0,27.917,18.119,53.743,48.863,74.768l22.249,13.246
		c47.156,24.528,113.812,39.819,187.697,39.819c4.27,0,8.512-0.058,12.73-0.159C210.888,417.252,149.17,402.348,104.754,379.247z"/>
</g>
<g>
	<path style="fill:#202020;" d="M206.912,183.075c-31.369,0-55.026,14.008-55.026,32.583c0,18.576,23.656,32.584,55.026,32.584
		s55.025-14.008,55.025-32.584C261.936,197.082,238.28,183.075,206.912,183.075z M206.912,232.02
		c-23.688,0-38.806-9.692-38.806-16.364c0-6.672,15.117-16.363,38.806-16.363s38.806,9.691,38.806,16.363
		C245.718,222.328,230.6,232.02,206.912,232.02z"/>
	<path style="fill:#202020;" d="M501.949,238.642c2.414,0.587,4.973,0.035,6.93-1.503c1.957-1.538,3.099-3.888,3.099-6.377v-61.044
		c0.008-0.142,0.022-0.281,0.022-0.424c0-2.263-0.926-4.309-2.421-5.781c-43.003-47.812-138.16-78.685-242.66-78.685
		c-70.352,0-136.62,13.594-186.597,38.279C28.525,148.694,0,183.377,0,220.773v70.459c0,29.852,18.118,58.021,52.395,81.462
		c3.696,2.529,8.744,1.582,11.272-2.116c2.529-3.697,1.581-8.744-2.116-11.272c-20.679-14.143-45.33-37.432-45.33-68.074v-23.078
		c0.208,0.29,0.434,0.574,0.644,0.863c0.567,0.775,1.138,1.55,1.732,2.318c0.317,0.411,0.649,0.819,0.974,1.227
		c0.557,0.701,1.119,1.4,1.699,2.096c0.359,0.429,0.727,0.856,1.094,1.285c0.575,0.67,1.159,1.34,1.757,2.005
		c0.388,0.433,0.782,0.864,1.18,1.294c0.609,0.66,1.231,1.317,1.861,1.972c0.405,0.422,0.813,0.843,1.228,1.263
		c0.659,0.666,1.334,1.329,2.016,1.991c0.41,0.398,0.816,0.797,1.235,1.193c0.743,0.703,1.506,1.401,2.274,2.098
		c0.38,0.344,0.75,0.691,1.135,1.034c0.953,0.847,1.931,1.688,2.922,2.524c0.22,0.186,0.43,0.374,0.652,0.559
		c1.231,1.028,2.49,2.05,3.777,3.062c0.265,0.209,0.543,0.413,0.81,0.621c1.018,0.79,2.045,1.579,3.096,2.359
		c0.462,0.343,0.939,0.681,1.407,1.022c0.879,0.64,1.761,1.278,2.663,1.911c0.542,0.381,1.095,0.756,1.646,1.134
		c0.856,0.587,1.718,1.173,2.595,1.754c0.588,0.39,1.184,0.777,1.782,1.165c0.868,0.562,1.745,1.122,2.633,1.678
		c0.619,0.387,1.239,0.774,1.866,1.158c0.901,0.553,1.814,1.101,2.735,1.647c0.631,0.374,1.262,0.749,1.902,1.121
		c0.961,0.558,1.939,1.109,2.92,1.661c0.62,0.348,1.235,0.699,1.862,1.043c1.09,0.599,2.202,1.192,3.315,1.782
		c0.54,0.285,1.068,0.575,1.612,0.859c1.668,0.869,3.36,1.73,5.08,2.58c49.977,24.685,116.245,38.279,186.597,38.279
		c2.738,0,5.467-0.026,8.191-0.068c0.319-0.005,0.64-0.008,0.959-0.013c2.587-0.044,5.167-0.111,7.739-0.194
		c0.433-0.014,0.864-0.027,1.295-0.042c2.532-0.088,5.057-0.192,7.576-0.316c0.428-0.021,0.856-0.043,1.285-0.065
		c2.551-0.131,5.094-0.278,7.628-0.445c0.321-0.022,0.641-0.045,0.961-0.067c2.658-0.181,5.307-0.376,7.945-0.597
		c0.023-0.002,0.046-0.004,0.069-0.007c2.64-0.221,5.267-0.465,7.885-0.726c0.287-0.028,0.574-0.055,0.861-0.084
		c2.507-0.253,5-0.528,7.485-0.816c0.399-0.047,0.798-0.092,1.196-0.139c2.44-0.29,4.867-0.597,7.285-0.92
		c0.403-0.054,0.805-0.109,1.207-0.163c2.444-0.333,4.877-0.681,7.297-1.049c0.302-0.045,0.602-0.094,0.904-0.141
		c2.535-0.39,5.058-0.794,7.564-1.221c0.023-0.003,0.047-0.009,0.069-0.012c2.526-0.43,5.034-0.883,7.528-1.352
		c0.235-0.044,0.471-0.086,0.706-0.131c2.388-0.452,4.759-0.923,7.117-1.408c0.357-0.074,0.715-0.146,1.071-0.221
		c2.309-0.481,4.602-0.979,6.882-1.491c0.362-0.081,0.725-0.164,1.087-0.247c2.3-0.524,4.586-1.062,6.853-1.618
		c0.273-0.067,0.544-0.135,0.816-0.203c2.367-0.586,4.72-1.185,7.05-1.805c0.032-0.009,0.064-0.017,0.095-0.026
		c2.353-0.626,4.683-1.273,6.996-1.935c0.191-0.054,0.383-0.107,0.574-0.162c2.221-0.639,4.421-1.295,6.604-1.966
		c0.313-0.096,0.626-0.191,0.938-0.288c2.128-0.66,4.236-1.333,6.326-2.022c0.33-0.109,0.659-0.218,0.988-0.328
		c2.098-0.699,4.177-1.409,6.235-2.137c0.26-0.092,0.516-0.185,0.774-0.277c2.138-0.761,4.257-1.535,6.35-2.328
		c0.056-0.022,0.11-0.043,0.165-0.064c2.109-0.8,4.191-1.618,6.253-2.45c0.163-0.066,0.328-0.13,0.491-0.196
		c1.993-0.809,3.96-1.634,5.907-2.471c0.281-0.121,0.563-0.241,0.845-0.362c1.891-0.82,3.759-1.654,5.606-2.501
		c0.3-0.137,0.597-0.275,0.894-0.413c1.847-0.855,3.673-1.723,5.474-2.604c0.242-0.119,0.482-0.239,0.723-0.359
		c1.86-0.918,3.699-1.848,5.507-2.794c0.081-0.042,0.16-0.085,0.241-0.128c1.811-0.95,3.593-1.916,5.349-2.895
		c0.142-0.079,0.287-0.157,0.428-0.237c1.715-0.96,3.399-1.936,5.06-2.921c0.25-0.148,0.501-0.296,0.749-0.444
		c1.605-0.96,3.182-1.934,4.736-2.92c0.271-0.172,0.542-0.345,0.812-0.518c1.545-0.99,3.068-1.991,4.56-3.005
		c0.226-0.154,0.449-0.308,0.673-0.463c1.533-1.052,3.045-2.113,4.52-3.189c0.103-0.075,0.202-0.151,0.304-0.226
		c1.463-1.072,2.895-2.157,4.299-3.253c0.128-0.1,0.258-0.198,0.386-0.298c1.387-1.09,2.739-2.194,4.066-3.307
		c0.131-0.11,0.27-0.216,0.401-0.327v48.21c-40.89,43.456-130.159,71.4-228.84,71.4c-69.371,0-136.42-14.179-183.954-38.904
		c-3.975-2.068-8.87-0.52-10.937,3.452c-2.067,3.974-0.521,8.87,3.452,10.937c50.502,26.269,118.49,40.735,191.439,40.735
		c104.786,0,200.171-31.037,243.004-79.071c1.326-1.486,2.057-3.406,2.057-5.397v-70.46c0-0.087-0.017-0.169-0.019-0.255
		c-0.007-0.204-0.025-0.407-0.047-0.61c-0.023-0.217-0.051-0.433-0.092-0.646c-0.036-0.191-0.082-0.38-0.133-0.569
		c-0.058-0.221-0.124-0.437-0.201-0.65c-0.063-0.176-0.132-0.348-0.208-0.521c-0.097-0.221-0.203-0.435-0.319-0.644
		c-0.051-0.092-0.084-0.189-0.138-0.279c-0.04-0.067-0.093-0.123-0.135-0.189c-0.132-0.205-0.275-0.4-0.425-0.593
		c-0.11-0.143-0.22-0.287-0.338-0.42c-0.158-0.177-0.33-0.342-0.503-0.506c-0.13-0.123-0.256-0.249-0.394-0.362
		c-0.185-0.152-0.383-0.288-0.582-0.424c-0.145-0.099-0.284-0.203-0.435-0.293c-0.205-0.122-0.424-0.224-0.641-0.329
		c-0.161-0.078-0.318-0.161-0.483-0.228c-0.045-0.018-0.084-0.044-0.13-0.062c-0.182-0.069-0.37-0.108-0.554-0.163
		c-0.173-0.052-0.342-0.112-0.518-0.152c-0.242-0.056-0.486-0.085-0.73-0.119c-0.17-0.023-0.337-0.056-0.508-0.069
		c-0.269-0.019-0.537-0.01-0.805-0.002c-0.149,0.004-0.297-0.005-0.448,0.008c-0.403,0.034-0.802,0.097-1.195,0.19
		c-0.016,0.004-0.032,0.004-0.049,0.008c-19.358,4.715-41.381,7.207-63.687,7.207c-34.942,0-67.667-5.887-92.146-16.577
		c-2.574-1.123-5.013-2.288-7.324-3.485c24.203-12.54,60.833-20.077,99.47-20.077C460.574,231.435,482.597,233.927,501.949,238.642z
		 M495.76,220.669c-18-3.58-37.665-5.454-57.496-5.454c-45.901,0-88.153,9.763-114.742,26.313
		c-3.484-2.955-6.859-6.514-9.146-10.543c-0.023-0.04-0.042-0.079-0.064-0.119c-0.203-0.361-0.396-0.728-0.581-1.096
		c-0.095-0.191-0.183-0.384-0.273-0.576c-0.103-0.221-0.204-0.441-0.301-0.664c-0.095-0.221-0.185-0.441-0.272-0.662
		c-0.081-0.207-0.158-0.414-0.234-0.622c-0.08-0.224-0.162-0.448-0.235-0.672c-0.083-0.256-0.156-0.516-0.228-0.775
		c-0.079-0.281-0.152-0.563-0.218-0.845c-0.071-0.305-0.139-0.612-0.196-0.921c-0.032-0.174-0.056-0.347-0.083-0.52
		c-0.047-0.302-0.086-0.604-0.118-0.909c-0.016-0.152-0.032-0.305-0.044-0.457c-0.035-0.455-0.059-0.913-0.059-1.374
		c0-1.131,0.11-2.264,0.327-3.399c0.01-0.046,0.021-0.093,0.03-0.141c2.185-10.99,14.408-22.004,34.291-30.687
		c22.95-10.022,53.146-15.823,85.622-16.51c2.165-0.045,4.34-0.068,6.524-0.068c1.827,0,3.647,0.024,5.464,0.056
		c0.571,0.011,1.141,0.023,1.711,0.036c1.405,0.034,2.805,0.078,4.203,0.13c0.936,0.036,1.872,0.077,2.805,0.121
		c1.055,0.05,2.108,0.103,3.159,0.164c0.96,0.056,1.919,0.116,2.875,0.181c0.679,0.045,1.356,0.098,2.034,0.149
		c1.832,0.137,3.655,0.291,5.469,0.462c0.533,0.05,1.067,0.098,1.599,0.151c1.072,0.107,2.141,0.221,3.206,0.34
		c0.623,0.069,1.242,0.145,1.863,0.218c1.554,0.184,3.098,0.381,4.633,0.589c0.886,0.121,1.772,0.242,2.652,0.372
		c0.776,0.114,1.55,0.23,2.322,0.35c1.357,0.212,2.709,0.43,4.053,0.662c0.283,0.049,0.568,0.095,0.85,0.145l8.598,1.794V220.669z
		 M438.263,287.794c13.228,0,26.383-0.835,39.021-2.452c-0.132,0.098-0.266,0.196-0.399,0.293c-1.3,0.957-2.619,1.906-3.971,2.843
		c-0.034,0.023-0.068,0.046-0.102,0.069c-1.337,0.925-2.704,1.837-4.09,2.741c-0.225,0.146-0.447,0.294-0.672,0.439
		c-1.359,0.879-2.742,1.746-4.147,2.605c-0.273,0.167-0.547,0.333-0.822,0.498c-1.428,0.864-2.875,1.72-4.349,2.563
		c-0.178,0.102-0.359,0.202-0.537,0.303c-1.438,0.818-2.898,1.625-4.377,2.423c-0.173,0.093-0.343,0.188-0.517,0.281
		c-1.529,0.819-3.084,1.624-4.656,2.422c-0.302,0.154-0.603,0.306-0.906,0.458c-1.559,0.783-3.137,1.555-4.736,2.316
		c-0.27,0.129-0.543,0.255-0.814,0.383c-1.662,0.784-3.339,1.558-5.042,2.318c-0.023,0.01-0.044,0.021-0.067,0.03
		c-1.715,0.764-3.457,1.513-5.213,2.254c-0.296,0.124-0.591,0.251-0.889,0.375c-1.691,0.706-3.402,1.4-5.13,2.084
		c-0.333,0.132-0.668,0.263-1.002,0.394c-1.767,0.692-3.549,1.374-5.354,2.043c-0.178,0.066-0.359,0.131-0.538,0.196
		c-1.755,0.647-3.527,1.28-5.316,1.903c-0.241,0.084-0.479,0.17-0.721,0.253c-1.831,0.634-3.682,1.253-5.547,1.862
		c-0.364,0.119-0.73,0.238-1.095,0.356c-1.859,0.6-3.733,1.191-5.624,1.767c-0.3,0.091-0.601,0.181-0.901,0.271
		c-1.909,0.576-3.83,1.142-5.771,1.693c-0.102,0.029-0.203,0.059-0.306,0.089c-1.985,0.562-3.991,1.107-6.009,1.644
		c-0.358,0.095-0.716,0.191-1.075,0.285c-1.958,0.515-3.931,1.015-5.917,1.505c-0.375,0.092-0.752,0.183-1.128,0.275
		c-2.046,0.497-4.102,0.985-6.175,1.454c-0.148,0.034-0.298,0.066-0.448,0.099c-2.022,0.456-4.059,0.897-6.107,1.328
		c-0.305,0.064-0.609,0.13-0.915,0.194c-2.068,0.429-4.149,0.845-6.241,1.247c-0.407,0.079-0.814,0.157-1.223,0.234
		c-2.1,0.398-4.212,0.785-6.336,1.156c-0.304,0.053-0.61,0.104-0.915,0.157c-2.1,0.362-4.21,0.713-6.331,1.048
		c-0.178,0.028-0.356,0.058-0.534,0.086c-2.185,0.343-4.386,0.668-6.594,0.982c-0.41,0.058-0.819,0.117-1.228,0.174
		c-2.16,0.302-4.331,0.59-6.511,0.864c-0.397,0.05-0.796,0.098-1.194,0.147c-2.262,0.279-4.532,0.546-6.815,0.795
		c-0.091,0.01-0.183,0.018-0.274,0.028c-2.243,0.242-4.498,0.467-6.759,0.68c-0.362,0.034-0.723,0.069-1.086,0.103
		c-2.232,0.205-4.473,0.395-6.723,0.571c-0.443,0.035-0.887,0.068-1.331,0.102c-2.272,0.172-4.55,0.332-6.837,0.474
		c-0.293,0.018-0.588,0.034-0.881,0.052c-2.23,0.135-4.465,0.255-6.709,0.361c-0.252,0.012-0.503,0.026-0.756,0.037
		c-2.318,0.106-4.645,0.194-6.977,0.268c-0.444,0.014-0.89,0.029-1.335,0.042c-2.299,0.068-4.603,0.122-6.915,0.159
		c-0.4,0.007-0.8,0.011-1.2,0.016c-2.419,0.034-4.841,0.056-7.272,0.056c-67.91,0-131.627-12.999-179.414-36.603
		c-5.746-2.838-11.17-5.783-16.261-8.824c-34.738-20.743-54.016-45.95-54.971-72.243c1.131,0.599,2.419,0.941,3.787,0.941h112.891
		c4.48,0,8.11-3.63,8.11-8.11c0-4.48-3.63-8.11-8.11-8.11H20.063c-0.816,0-1.603,0.123-2.345,0.347
		c6.018-26.148,30.258-50.715,69.791-70.242c47.787-23.603,111.504-36.603,179.414-36.603c85.748,0,164.389,21.099,210.359,55.141
		c-1.41-0.181-2.832-0.34-4.253-0.501c-0.189-0.022-0.376-0.045-0.566-0.067c-1.325-0.147-2.656-0.281-3.989-0.412
		c-0.479-0.047-0.958-0.093-1.438-0.137c-1.309-0.121-2.62-0.238-3.937-0.343c-0.435-0.035-0.872-0.064-1.307-0.096
		c-2.151-0.161-4.31-0.301-6.479-0.416c-0.902-0.049-1.803-0.101-2.708-0.142c-0.906-0.041-1.814-0.074-2.723-0.107
		c-1.187-0.044-2.375-0.08-3.565-0.111c-0.726-0.018-1.449-0.038-2.177-0.051c-1.956-0.037-3.914-0.061-5.875-0.061
		c-37.126,0-72.156,6.369-98.638,17.934c-21.867,9.549-36.215,21.983-41.773,35.864h-17.833c-4.48,0-8.11,3.63-8.11,8.11
		s3.63,8.11,8.11,8.11h15.369c0.055,0.635,0.125,1.268,0.215,1.899c0.011,0.077,0.018,0.154,0.03,0.23
		c0.119,0.796,0.268,1.586,0.442,2.375c0.015,0.068,0.032,0.135,0.048,0.203c0.175,0.771,0.376,1.539,0.603,2.303
		c0.008,0.024,0.013,0.048,0.021,0.072c2.229,7.427,6.93,14.478,13.912,20.95c0.009,0.008,0.016,0.015,0.025,0.023
		c1.527,1.413,3.162,2.798,4.905,4.153c0.07,0.055,0.142,0.11,0.213,0.165c6.504,5.025,14.471,9.638,23.822,13.721
		C366.106,281.426,401.137,287.794,438.263,287.794z"/>
</g>
</svg>