<?xml version="1.0" encoding="iso-8859-1"?>
<!-- Uploaded to: SVG Repo, www.svgrepo.com, Generator: SVG Repo Mixer Tools -->
<svg version="1.1" id="Layer_1" xmlns="http://www.w3.org/2000/svg" xmlns:xlink="http://www.w3.org/1999/xlink" 
	 viewBox="0 0 512 512" xml:space="preserve">
<rect x="55.543" y="15.42" style="fill:#81CCB5;" width="400.924" height="481.155"/>
<path d="M330.354,111.081c-1.002,0-2.02-0.106-3.007-0.308c-0.987-0.2-1.958-0.492-2.884-0.877
	c-0.941-0.386-1.835-0.865-2.668-1.419c-0.848-0.555-1.635-1.203-2.344-1.912c-0.709-0.725-1.357-1.511-1.912-2.345
	c-0.555-0.848-1.033-1.742-1.419-2.666c-0.385-0.924-0.694-1.897-0.879-2.884c-0.2-0.987-0.308-2.005-0.308-3.007
	c0-1.001,0.108-2.02,0.308-3.022c0.185-0.987,0.493-1.943,0.879-2.884c0.385-0.925,0.848-1.82,1.403-2.652
	c0.571-0.848,1.218-1.635,1.928-2.344s1.496-1.359,2.344-1.928c0.833-0.555,1.727-1.035,2.652-1.42
	c0.941-0.386,1.912-0.677,2.899-0.877c1.974-0.401,4.025-0.401,6.014,0c0.987,0.2,1.958,0.492,2.884,0.877
	c0.941,0.386,1.835,0.865,2.668,1.42c0.848,0.569,1.635,1.218,2.344,1.928c0.709,0.709,1.357,1.496,1.912,2.344
	c0.555,0.833,1.033,1.727,1.419,2.652c0.385,0.927,0.678,1.897,0.879,2.884c0.2,1.002,0.308,2.022,0.308,3.022
	c0,1.002-0.108,2.022-0.308,3.007c-0.2,0.987-0.493,1.96-0.879,2.884c-0.385,0.924-0.864,1.82-1.419,2.666
	c-0.555,0.833-1.203,1.621-1.912,2.345c-0.709,0.709-1.496,1.357-2.344,1.912c-0.833,0.554-1.727,1.033-2.668,1.419
	c-0.925,0.386-1.897,0.677-2.884,0.877C332.374,110.974,331.357,111.081,330.354,111.081z"/>
<path d="M379.361,111.081c-1.002,0-2.02-0.106-3.007-0.308c-0.987-0.2-1.958-0.492-2.884-0.877
	c-0.941-0.386-1.835-0.865-2.668-1.419c-0.848-0.555-1.635-1.203-2.344-1.912c-0.709-0.725-1.357-1.511-1.912-2.345
	c-0.555-0.848-1.033-1.742-1.419-2.666c-0.386-0.924-0.694-1.897-0.879-2.884c-0.2-0.987-0.308-2.005-0.308-3.007
	c0-1.001,0.108-2.02,0.308-3.022c0.185-0.987,0.493-1.958,0.879-2.884c0.385-0.925,0.864-1.82,1.419-2.652
	c0.555-0.848,1.203-1.635,1.912-2.344c0.709-0.709,1.496-1.359,2.344-1.928c0.833-0.555,1.727-1.035,2.668-1.42
	c0.925-0.386,1.897-0.677,2.884-0.877c1.974-0.401,4.025-0.401,6.014,0c0.987,0.2,1.958,0.492,2.899,0.877
	c0.925,0.386,1.82,0.865,2.652,1.42c0.848,0.569,1.635,1.218,2.344,1.928c0.709,0.709,1.357,1.496,1.912,2.344
	c0.555,0.833,1.033,1.727,1.419,2.652c0.385,0.941,0.678,1.897,0.879,2.884c0.2,1.002,0.308,2.022,0.308,3.022
	c0,1.002-0.108,2.022-0.308,3.007c-0.2,0.985-0.493,1.96-0.879,2.884c-0.386,0.924-0.864,1.82-1.419,2.666
	c-0.555,0.833-1.203,1.621-1.912,2.345c-0.709,0.709-1.496,1.357-2.344,1.912c-0.833,0.554-1.727,1.033-2.652,1.419
	c-0.941,0.386-1.912,0.677-2.899,0.877C381.381,110.974,380.364,111.081,379.361,111.081z"/>
<rect x="139.012" y="166.584" style="fill:#FFAB64;" width="233.97" height="240.554"/>
<path d="M456.462,0H55.538c-8.517,0-15.42,6.905-15.42,15.42v481.16c0,8.515,6.904,15.42,15.42,15.42h400.924
	c8.517,0,15.42-6.905,15.42-15.42V15.42C471.882,6.905,464.979,0,456.462,0z M441.042,481.16H70.958V111.076h213.136
	c8.517,0,15.42-6.905,15.42-15.42s-6.904-15.42-15.42-15.42H70.958V30.84h370.084V481.16z"/>
<path d="M123.598,166.589v240.554c0,8.515,6.904,15.42,15.42,15.42h233.964c8.517,0,15.42-6.905,15.42-15.42V166.589
	c0-8.515-6.904-15.42-15.42-15.42H139.018C130.502,151.168,123.598,158.074,123.598,166.589z M154.438,182.009h203.124v209.714
	H154.438V182.009z"/>
<path d="M273.243,319.137c0-23.311-61.073-19.266-61.073-64.347c0-28.899,25.238-39.88,49.32-39.88
	c10.211,0,38.339,1.926,38.339,16.954c0,5.201-3.468,15.796-11.944,15.796c-6.936,0-10.597-7.32-26.395-7.32
	c-13.679,0-19.266,5.587-19.266,11.559c0,19.266,61.072,15.605,61.072,64.154c0,27.742-20.23,42.769-48.163,42.769
	c-25.238,0-46.43-12.33-46.43-25.044c0-6.55,5.779-16.183,13.101-16.183c9.055,0,14.836,14.256,32.752,14.256
	C263.417,331.853,273.243,328.385,273.243,319.137z"/>
</svg>